<?xml version="1.0" encoding="UTF-8"?>
<svg xmlns="http://www.w3.org/2000/svg" width="20" height="20" viewBox="0 0 20 20">
	<title>chem</title>
    <path d="M5 3v2l1-.002v2.36l-4.61 7.877c-.38.614-.37 1.338-.046 1.875.324.538.943.89 1.656.89h14c.713 0 1.33-.353 1.654-.89.324-.536.335-1.258-.043-1.873L14 7.357V4.999h1V3h-2.5a.5.5 0 0 0-.5.5v4c0 .092.025.402.074.48l3.94 6.783c.202.33.174.606.037.834-.137.227-.402.404-.797.404H4.746c-.395 0-.66-.179-.8-.407-.136-.228-.165-.503.038-.83.001 0 .002 0 .002-.002l3.94-6.782C7.974 7.9 8 7.591 8 7.5v-4a.5.5 0 0 0-.5-.5z" id="flask"/>
    <path d="M7.3 11.056L5 15h10l-1.67-2.918c-1.296.227-4.48-.89-6.03-1.026zm1.181 1.399a1 1 0 1 1 0 2 1 1 0 0 1 0-2z" id="liquid"/>
    <circle r="1.154" cy="2.424" cx="10.617" id="bubble1" stroke-width="1.13"/>
    <ellipse ry=".654" rx=".643" cy="5.589" cx="9.469" id="bubble2" stroke-width=".824"/>
    <circle r="1.095" cy="9.673" cx="10.734" id="bubble3"/>
</svg>
