<?xml version="1.0" encoding="utf-8"?>
<svg xmlns="http://www.w3.org/2000/svg" width="20" height="20" viewBox="2 2 20 20">
    <g id="math-display-default">
        <path id="sigma" d="M 12.609,11.391 10.275186,16.004 15,16 l 0,-1 1,0 0,3 L 7.2711866,18 11,12 7.2711866,7 16,7 l 0,3 -1,0 0,-2 -4.728814,0" />
        <path id="sum-to" d="m 13,20 c 0,0.552285 -0.447715,1 -1,1 -0.552285,0 -1,-0.447715 -1,-1 0,-0.552285 0.447715,-1 1,-1 0.552285,0 1,0.447715 1,1 z" />
        <path id="sum-from" d="m 13,5 c 0,0.5522847 -0.447715,1 -1,1 -0.552285,0 -1,-0.4477153 -1,-1 0,-0.5522847 0.447715,-1 1,-1 0.552285,0 1,0.4477153 1,1 z" />
        <path id="text-before" d="M 3,11.5 C 3,11.223 3.223,11 3.5,11 l 3,0 C 6.777,11 7,11.223 7,11.5 l 0,2 C 7,13.777 6.777,14 6.5,14 l -3,0 C 3.223,14 3,13.777 3,13.5 z" />
        <path id="text-after" d="M 17,11.5 C 17,11.223 17.223,11 17.5,11 l 3,0 c 0.277,0 0.5,0.223 0.5,0.5 l 0,2 c 0,0.277 -0.223,0.5 -0.5,0.5 l -3,0 C 17.223,14 17,13.777 17,13.5 z" />
    </g>
</svg>
