<?xml version="1.0" encoding="utf-8"?>
<svg xmlns="http://www.w3.org/2000/svg" width="20" height="20" viewBox="2 2 20 20">
    <g id="math-display-default">
        <path id="sigma" d="M 12.609,11.391 10.275186,16.004 15,16 l 0,-1 1,0 0,3 L 7.2711863,18 11,12 7.2711863,7 16,7 l 0,3 -1,0 0,-2 -4.728814,0" />
        <path id="text" d="m 3.5,19 17,0 c 0.277,0 0.5,0.223 0.5,0.5 0,0.277 -0.223,0.5 -0.5,0.5 l -17,0 C 3.223,20 3,19.777 3,19.5 3,19.223 3.223,19 3.5,19 z m 0,-14 17,0 C 20.777,5 21,5.223 21,5.5 21,5.777 20.777,6 20.5,6 L 3.5,6 C 3.223,6 3,5.777 3,5.5 3,5.223 3.223,5 3.5,5 z" />
    </g>
</svg>
